<mxfile host="app.diagrams.net" modified="2023-11-08T03:03:55.914Z" agent="Mozilla/5.0 (Macintosh; Intel Mac OS X 10_15_7) AppleWebKit/537.36 (KHTML, like Gecko) Chrome/119.0.0.0 Safari/537.36 Edg/119.0.0.0" etag="IIF7AK2C4aoPP1GXgdok" version="22.0.8" type="github">
  <diagram name="第 1 页" id="aBAtC7C85wRrQgK5SBA-">
    <mxGraphModel dx="754" dy="485" grid="1" gridSize="10" guides="1" tooltips="1" connect="1" arrows="1" fold="1" page="1" pageScale="1" pageWidth="827" pageHeight="1169" math="0" shadow="0">
      <root>
        <mxCell id="0" />
        <mxCell id="1" parent="0" />
        <mxCell id="pVMCiTDg7z46em1MxIxY-14" value="" style="rounded=1;whiteSpace=wrap;html=1;fillStyle=auto;dashed=1;glass=0;perimeterSpacing=0;resizeHeight=0;fillColor=#dae8fc;strokeColor=#6c8ebf;" parent="1" vertex="1">
          <mxGeometry x="315" y="80" width="150" height="140" as="geometry" />
        </mxCell>
        <mxCell id="pVMCiTDg7z46em1MxIxY-2" value="" style="rounded=1;whiteSpace=wrap;html=1;fillColor=#f5f5f5;fontColor=#333333;strokeColor=#666666;" parent="1" vertex="1">
          <mxGeometry x="322" y="86" width="60" height="60" as="geometry" />
        </mxCell>
        <mxCell id="pVMCiTDg7z46em1MxIxY-97" value="" style="edgeStyle=orthogonalEdgeStyle;rounded=0;orthogonalLoop=1;jettySize=auto;html=1;" parent="1" target="pVMCiTDg7z46em1MxIxY-96" edge="1">
          <mxGeometry relative="1" as="geometry">
            <mxPoint x="541" y="250" as="sourcePoint" />
            <Array as="points">
              <mxPoint x="540" y="250" />
              <mxPoint x="540" y="250" />
            </Array>
          </mxGeometry>
        </mxCell>
        <mxCell id="pVMCiTDg7z46em1MxIxY-6" value="" style="strokeWidth=2;html=1;shape=mxgraph.flowchart.document2;whiteSpace=wrap;size=0.25;fillColor=#d5e8d4;strokeColor=#82b366;" parent="1" vertex="1">
          <mxGeometry x="9" y="200" width="100" height="60" as="geometry" />
        </mxCell>
        <mxCell id="pVMCiTDg7z46em1MxIxY-7" value="" style="strokeWidth=2;html=1;shape=mxgraph.flowchart.document2;whiteSpace=wrap;size=0.25;fillColor=#dae8fc;strokeColor=#6c8ebf;" parent="1" vertex="1">
          <mxGeometry x="19" y="210" width="100" height="60" as="geometry" />
        </mxCell>
        <mxCell id="pVMCiTDg7z46em1MxIxY-10" value="" style="edgeStyle=orthogonalEdgeStyle;rounded=0;orthogonalLoop=1;jettySize=auto;html=1;" parent="1" source="pVMCiTDg7z46em1MxIxY-8" edge="1">
          <mxGeometry relative="1" as="geometry">
            <mxPoint x="155" y="250" as="targetPoint" />
          </mxGeometry>
        </mxCell>
        <mxCell id="pVMCiTDg7z46em1MxIxY-8" value="Document&lt;sub&gt;1&lt;/sub&gt;" style="strokeWidth=2;html=1;shape=mxgraph.flowchart.document2;whiteSpace=wrap;size=0.25;fillColor=#fff2cc;strokeColor=#d6b656;" parent="1" vertex="1">
          <mxGeometry x="29" y="220" width="100" height="60" as="geometry" />
        </mxCell>
        <mxCell id="pVMCiTDg7z46em1MxIxY-9" value="S1: [x&lt;sub&gt;1&lt;/sub&gt;] [x&lt;sub&gt;2&lt;/sub&gt;] [x&lt;sub&gt;3&lt;/sub&gt;]" style="rounded=1;whiteSpace=wrap;html=1;strokeWidth=2;fillColor=#f5f5f5;fontColor=#333333;strokeColor=#666666;" parent="1" vertex="1">
          <mxGeometry x="161" y="216" width="120" height="20" as="geometry" />
        </mxCell>
        <mxCell id="pVMCiTDg7z46em1MxIxY-11" value="S2: [y&lt;sub&gt;1&lt;/sub&gt;] &lt;span style=&quot;background-color: rgb(245, 167, 167);&quot;&gt;[&lt;font style=&quot;&quot; color=&quot;#cc0000&quot;&gt;&lt;b&gt;y&lt;sub&gt;2&lt;/sub&gt;&lt;/b&gt;&lt;/font&gt;]&lt;/span&gt; [y&lt;sub&gt;3&lt;/sub&gt;]" style="rounded=1;whiteSpace=wrap;html=1;strokeWidth=2;fillColor=#f5f5f5;fontColor=#333333;strokeColor=#666666;" parent="1" vertex="1">
          <mxGeometry x="161" y="240" width="120" height="20" as="geometry" />
        </mxCell>
        <mxCell id="pVMCiTDg7z46em1MxIxY-12" value="S3: [z&lt;sub&gt;1&lt;/sub&gt;] [z&lt;sub&gt;2&lt;/sub&gt;]&amp;nbsp;" style="rounded=1;whiteSpace=wrap;html=1;strokeWidth=2;fillColor=#f5f5f5;fontColor=#333333;strokeColor=#666666;" parent="1" vertex="1">
          <mxGeometry x="161" y="264" width="120" height="20" as="geometry" />
        </mxCell>
        <mxCell id="pVMCiTDg7z46em1MxIxY-26" value="" style="edgeStyle=none;orthogonalLoop=1;jettySize=auto;html=1;rounded=0;" parent="1" edge="1">
          <mxGeometry width="100" relative="1" as="geometry">
            <mxPoint x="475" y="330" as="sourcePoint" />
            <mxPoint x="505" y="290" as="targetPoint" />
            <Array as="points" />
          </mxGeometry>
        </mxCell>
        <mxCell id="pVMCiTDg7z46em1MxIxY-93" value="Fusion" style="edgeLabel;html=1;align=center;verticalAlign=middle;resizable=0;points=[];" parent="pVMCiTDg7z46em1MxIxY-26" vertex="1" connectable="0">
          <mxGeometry x="-0.248" y="2" relative="1" as="geometry">
            <mxPoint as="offset" />
          </mxGeometry>
        </mxCell>
        <mxCell id="pVMCiTDg7z46em1MxIxY-27" value="" style="edgeStyle=none;orthogonalLoop=1;jettySize=auto;html=1;rounded=0;" parent="1" edge="1">
          <mxGeometry width="100" relative="1" as="geometry">
            <mxPoint x="475" y="170" as="sourcePoint" />
            <mxPoint x="505" y="210" as="targetPoint" />
            <Array as="points" />
          </mxGeometry>
        </mxCell>
        <mxCell id="pVMCiTDg7z46em1MxIxY-92" value="Fusion" style="edgeLabel;html=1;align=center;verticalAlign=middle;resizable=0;points=[];" parent="pVMCiTDg7z46em1MxIxY-27" vertex="1" connectable="0">
          <mxGeometry x="-0.2427" y="1" relative="1" as="geometry">
            <mxPoint as="offset" />
          </mxGeometry>
        </mxCell>
        <mxCell id="pVMCiTDg7z46em1MxIxY-28" value="" style="edgeStyle=none;orthogonalLoop=1;jettySize=auto;html=1;rounded=0;" parent="1" edge="1">
          <mxGeometry width="100" relative="1" as="geometry">
            <mxPoint x="275" y="210" as="sourcePoint" />
            <mxPoint x="305" y="170" as="targetPoint" />
            <Array as="points" />
          </mxGeometry>
        </mxCell>
        <mxCell id="pVMCiTDg7z46em1MxIxY-31" value="" style="edgeStyle=none;orthogonalLoop=1;jettySize=auto;html=1;rounded=0;" parent="1" edge="1">
          <mxGeometry width="100" relative="1" as="geometry">
            <mxPoint x="275" y="290" as="sourcePoint" />
            <mxPoint x="305" y="330" as="targetPoint" />
            <Array as="points" />
          </mxGeometry>
        </mxCell>
        <mxCell id="pVMCiTDg7z46em1MxIxY-33" value="" style="rounded=1;whiteSpace=wrap;html=1;fillColor=#d5e8d4;strokeColor=#82b366;" parent="1" vertex="1">
          <mxGeometry x="399" y="152" width="60" height="60" as="geometry" />
        </mxCell>
        <mxCell id="pVMCiTDg7z46em1MxIxY-37" value="" style="edgeStyle=none;orthogonalLoop=1;jettySize=auto;html=1;rounded=0;entryX=-0.024;entryY=0.115;entryDx=0;entryDy=0;entryPerimeter=0;" parent="1" target="pVMCiTDg7z46em1MxIxY-33" edge="1">
          <mxGeometry width="100" relative="1" as="geometry">
            <mxPoint x="382" y="146" as="sourcePoint" />
            <mxPoint x="412" y="186" as="targetPoint" />
            <Array as="points" />
          </mxGeometry>
        </mxCell>
        <mxCell id="pVMCiTDg7z46em1MxIxY-99" value="Tweak" style="edgeLabel;html=1;align=center;verticalAlign=middle;resizable=0;points=[];labelBackgroundColor=#dae8fc;" parent="pVMCiTDg7z46em1MxIxY-37" vertex="1" connectable="0">
          <mxGeometry x="-0.4236" relative="1" as="geometry">
            <mxPoint x="-16" y="13" as="offset" />
          </mxGeometry>
        </mxCell>
        <mxCell id="pVMCiTDg7z46em1MxIxY-39" value="" style="rounded=1;whiteSpace=wrap;html=1;fillStyle=auto;dashed=1;glass=0;perimeterSpacing=0;resizeHeight=0;fillColor=#ffe6cc;strokeColor=#d79b00;" parent="1" vertex="1">
          <mxGeometry x="315" y="280" width="150" height="140" as="geometry" />
        </mxCell>
        <mxCell id="pVMCiTDg7z46em1MxIxY-40" value="" style="rounded=1;whiteSpace=wrap;html=1;fillColor=#f5f5f5;fontColor=#333333;strokeColor=#666666;" parent="1" vertex="1">
          <mxGeometry x="322" y="286" width="60" height="60" as="geometry" />
        </mxCell>
        <mxCell id="pVMCiTDg7z46em1MxIxY-42" value="" style="edgeStyle=none;orthogonalLoop=1;jettySize=auto;html=1;rounded=0;entryX=-0.024;entryY=0.115;entryDx=0;entryDy=0;entryPerimeter=0;" parent="1" edge="1">
          <mxGeometry width="100" relative="1" as="geometry">
            <mxPoint x="382" y="346" as="sourcePoint" />
            <mxPoint x="397.55999999999983" y="358.9" as="targetPoint" />
            <Array as="points" />
          </mxGeometry>
        </mxCell>
        <mxCell id="pVMCiTDg7z46em1MxIxY-100" value="Tweak" style="edgeLabel;html=1;align=center;verticalAlign=middle;resizable=0;points=[];labelBackgroundColor=#ffe6cc;" parent="pVMCiTDg7z46em1MxIxY-42" vertex="1" connectable="0">
          <mxGeometry x="-0.3493" y="1" relative="1" as="geometry">
            <mxPoint x="-18" y="13" as="offset" />
          </mxGeometry>
        </mxCell>
        <mxCell id="pVMCiTDg7z46em1MxIxY-44" value="" style="ellipse;whiteSpace=wrap;html=1;aspect=fixed;fillColor=#f8cecc;strokeColor=#b85450;" parent="1" vertex="1">
          <mxGeometry x="343" y="88" width="18" height="18" as="geometry" />
        </mxCell>
        <mxCell id="pVMCiTDg7z46em1MxIxY-45" value="" style="ellipse;whiteSpace=wrap;html=1;aspect=fixed;fillColor=#1ba1e2;fontColor=#ffffff;strokeColor=#006EAF;" parent="1" vertex="1">
          <mxGeometry x="361" y="110" width="18" height="18" as="geometry" />
        </mxCell>
        <mxCell id="pVMCiTDg7z46em1MxIxY-46" value="" style="ellipse;whiteSpace=wrap;html=1;aspect=fixed;fillColor=#60a917;fontColor=#ffffff;strokeColor=#2D7600;" parent="1" vertex="1">
          <mxGeometry x="325" y="126" width="18" height="18" as="geometry" />
        </mxCell>
        <mxCell id="pVMCiTDg7z46em1MxIxY-48" value="" style="endArrow=none;html=1;rounded=0;entryX=0.5;entryY=1;entryDx=0;entryDy=0;exitX=1;exitY=0;exitDx=0;exitDy=0;" parent="1" source="pVMCiTDg7z46em1MxIxY-46" target="pVMCiTDg7z46em1MxIxY-44" edge="1">
          <mxGeometry width="50" height="50" relative="1" as="geometry">
            <mxPoint x="334" y="124" as="sourcePoint" />
            <mxPoint x="443" y="104" as="targetPoint" />
          </mxGeometry>
        </mxCell>
        <mxCell id="pVMCiTDg7z46em1MxIxY-49" value="" style="endArrow=none;html=1;rounded=0;entryX=0;entryY=1;entryDx=0;entryDy=0;exitX=1;exitY=0.5;exitDx=0;exitDy=0;" parent="1" source="pVMCiTDg7z46em1MxIxY-46" target="pVMCiTDg7z46em1MxIxY-45" edge="1">
          <mxGeometry width="50" height="50" relative="1" as="geometry">
            <mxPoint x="350" y="139" as="sourcePoint" />
            <mxPoint x="360" y="114" as="targetPoint" />
          </mxGeometry>
        </mxCell>
        <mxCell id="pVMCiTDg7z46em1MxIxY-50" value="" style="endArrow=none;html=1;rounded=0;entryX=0;entryY=0;entryDx=0;entryDy=0;exitX=1;exitY=1;exitDx=0;exitDy=0;" parent="1" source="pVMCiTDg7z46em1MxIxY-44" target="pVMCiTDg7z46em1MxIxY-45" edge="1">
          <mxGeometry width="50" height="50" relative="1" as="geometry">
            <mxPoint x="360" y="149" as="sourcePoint" />
            <mxPoint x="370" y="124" as="targetPoint" />
          </mxGeometry>
        </mxCell>
        <mxCell id="pVMCiTDg7z46em1MxIxY-58" value="" style="ellipse;whiteSpace=wrap;html=1;aspect=fixed;fillColor=#f8cecc;strokeColor=#b85450;" parent="1" vertex="1">
          <mxGeometry x="420" y="154" width="18" height="18" as="geometry" />
        </mxCell>
        <mxCell id="pVMCiTDg7z46em1MxIxY-59" value="" style="ellipse;whiteSpace=wrap;html=1;aspect=fixed;fillColor=#1ba1e2;fontColor=#ffffff;strokeColor=#006EAF;" parent="1" vertex="1">
          <mxGeometry x="438" y="176" width="18" height="18" as="geometry" />
        </mxCell>
        <mxCell id="pVMCiTDg7z46em1MxIxY-60" value="" style="ellipse;whiteSpace=wrap;html=1;aspect=fixed;fillColor=#60a917;fontColor=#ffffff;strokeColor=#2D7600;" parent="1" vertex="1">
          <mxGeometry x="402" y="192" width="18" height="18" as="geometry" />
        </mxCell>
        <mxCell id="pVMCiTDg7z46em1MxIxY-61" value="" style="endArrow=none;html=1;rounded=0;entryX=0.5;entryY=1;entryDx=0;entryDy=0;exitX=1;exitY=0;exitDx=0;exitDy=0;" parent="1" source="pVMCiTDg7z46em1MxIxY-60" target="pVMCiTDg7z46em1MxIxY-58" edge="1">
          <mxGeometry width="50" height="50" relative="1" as="geometry">
            <mxPoint x="411" y="190" as="sourcePoint" />
            <mxPoint x="520" y="170" as="targetPoint" />
          </mxGeometry>
        </mxCell>
        <mxCell id="pVMCiTDg7z46em1MxIxY-63" value="" style="endArrow=none;html=1;rounded=0;entryX=0;entryY=0;entryDx=0;entryDy=0;exitX=1;exitY=1;exitDx=0;exitDy=0;" parent="1" source="pVMCiTDg7z46em1MxIxY-58" target="pVMCiTDg7z46em1MxIxY-59" edge="1">
          <mxGeometry width="50" height="50" relative="1" as="geometry">
            <mxPoint x="437" y="215" as="sourcePoint" />
            <mxPoint x="447" y="190" as="targetPoint" />
          </mxGeometry>
        </mxCell>
        <mxCell id="pVMCiTDg7z46em1MxIxY-86" value="" style="ellipse;whiteSpace=wrap;html=1;aspect=fixed;fillColor=#f8cecc;strokeColor=#b85450;" parent="1" vertex="1">
          <mxGeometry x="350" y="287" width="18" height="18" as="geometry" />
        </mxCell>
        <mxCell id="pVMCiTDg7z46em1MxIxY-87" value="" style="ellipse;whiteSpace=wrap;html=1;aspect=fixed;fillColor=#60a917;fontColor=#ffffff;strokeColor=#2D7600;" parent="1" vertex="1">
          <mxGeometry x="322" y="308" width="18" height="18" as="geometry" />
        </mxCell>
        <mxCell id="pVMCiTDg7z46em1MxIxY-88" value="" style="endArrow=none;html=1;rounded=0;entryX=0;entryY=1;entryDx=0;entryDy=0;exitX=1;exitY=0;exitDx=0;exitDy=0;" parent="1" source="pVMCiTDg7z46em1MxIxY-87" target="pVMCiTDg7z46em1MxIxY-86" edge="1">
          <mxGeometry width="50" height="50" relative="1" as="geometry">
            <mxPoint x="343" y="312" as="sourcePoint" />
            <mxPoint x="452" y="292" as="targetPoint" />
          </mxGeometry>
        </mxCell>
        <mxCell id="pVMCiTDg7z46em1MxIxY-89" value="" style="ellipse;whiteSpace=wrap;html=1;aspect=fixed;fillColor=#1ba1e2;fontColor=#ffffff;strokeColor=#006EAF;" parent="1" vertex="1">
          <mxGeometry x="364" y="305" width="18" height="18" as="geometry" />
        </mxCell>
        <mxCell id="pVMCiTDg7z46em1MxIxY-90" value="" style="ellipse;whiteSpace=wrap;html=1;aspect=fixed;fillColor=#fa6800;fontColor=#000000;strokeColor=#C73500;" parent="1" vertex="1">
          <mxGeometry x="346" y="326" width="18" height="18" as="geometry" />
        </mxCell>
        <mxCell id="pVMCiTDg7z46em1MxIxY-91" value="" style="endArrow=none;html=1;rounded=0;entryX=0;entryY=1;entryDx=0;entryDy=0;exitX=1;exitY=0;exitDx=0;exitDy=0;" parent="1" source="pVMCiTDg7z46em1MxIxY-90" target="pVMCiTDg7z46em1MxIxY-89" edge="1">
          <mxGeometry width="50" height="50" relative="1" as="geometry">
            <mxPoint x="345" y="331" as="sourcePoint" />
            <mxPoint x="363" y="311" as="targetPoint" />
          </mxGeometry>
        </mxCell>
        <mxCell id="pVMCiTDg7z46em1MxIxY-102" value="" style="edgeStyle=orthogonalEdgeStyle;rounded=0;orthogonalLoop=1;jettySize=auto;html=1;" parent="1" source="pVMCiTDg7z46em1MxIxY-96" target="pVMCiTDg7z46em1MxIxY-101" edge="1">
          <mxGeometry relative="1" as="geometry" />
        </mxCell>
        <mxCell id="pVMCiTDg7z46em1MxIxY-96" value="[x&lt;sub style=&quot;border-color: var(--border-color); color: rgb(51, 51, 51);&quot;&gt;1&lt;/sub&gt;&lt;span style=&quot;color: rgb(51, 51, 51);&quot;&gt;] [x&lt;/span&gt;&lt;sub style=&quot;border-color: var(--border-color); color: rgb(51, 51, 51);&quot;&gt;2&lt;/sub&gt;&lt;span style=&quot;color: rgb(51, 51, 51);&quot;&gt;] [x&lt;/span&gt;&lt;sub style=&quot;border-color: var(--border-color); color: rgb(51, 51, 51);&quot;&gt;3&lt;/sub&gt;&lt;span style=&quot;color: rgb(51, 51, 51);&quot;&gt;]&amp;nbsp;&lt;/span&gt;[y&lt;sub style=&quot;border-color: var(--border-color); color: rgb(51, 51, 51);&quot;&gt;1&lt;/sub&gt;]&amp;nbsp;&lt;span style=&quot;background-color: rgb(248, 206, 204);&quot;&gt;&lt;span style=&quot;color: rgb(51, 51, 51);&quot;&gt;[&lt;/span&gt;&lt;font style=&quot;border-color: var(--border-color);&quot; color=&quot;#cc0000&quot;&gt;&lt;b style=&quot;border-color: var(--border-color);&quot;&gt;y&lt;sub style=&quot;border-color: var(--border-color);&quot;&gt;2&lt;/sub&gt;&lt;/b&gt;&lt;/font&gt;&lt;span style=&quot;color: rgb(51, 51, 51);&quot;&gt;]&lt;/span&gt;&lt;/span&gt;&lt;span style=&quot;color: rgb(51, 51, 51);&quot;&gt;&amp;nbsp;[y&lt;/span&gt;&lt;sub style=&quot;border-color: var(--border-color); color: rgb(51, 51, 51);&quot;&gt;3&lt;/sub&gt;&lt;span style=&quot;color: rgb(51, 51, 51);&quot;&gt;]&lt;/span&gt;&amp;nbsp;[z&lt;sub style=&quot;border-color: var(--border-color); color: rgb(51, 51, 51);&quot;&gt;1&lt;/sub&gt;&lt;span style=&quot;color: rgb(51, 51, 51);&quot;&gt;] [z&lt;/span&gt;&lt;sub style=&quot;border-color: var(--border-color); color: rgb(51, 51, 51);&quot;&gt;2&lt;/sub&gt;&lt;span style=&quot;color: rgb(51, 51, 51);&quot;&gt;]&lt;/span&gt;" style="rounded=1;whiteSpace=wrap;html=1;verticalAlign=top;" parent="1" vertex="1">
          <mxGeometry x="565" y="235" width="180" height="30" as="geometry" />
        </mxCell>
        <mxCell id="pVMCiTDg7z46em1MxIxY-104" value="" style="edgeStyle=orthogonalEdgeStyle;rounded=0;orthogonalLoop=1;jettySize=auto;html=1;" parent="1" source="pVMCiTDg7z46em1MxIxY-101" target="pVMCiTDg7z46em1MxIxY-103" edge="1">
          <mxGeometry relative="1" as="geometry" />
        </mxCell>
        <mxCell id="pVMCiTDg7z46em1MxIxY-101" value="Boundary Loss" style="whiteSpace=wrap;html=1;verticalAlign=top;rounded=1;" parent="1" vertex="1">
          <mxGeometry x="564" y="294.25" width="181" height="37" as="geometry" />
        </mxCell>
        <mxCell id="pVMCiTDg7z46em1MxIxY-103" value="Classification" style="whiteSpace=wrap;html=1;verticalAlign=top;rounded=1;" parent="1" vertex="1">
          <mxGeometry x="564" y="350.5" width="180" height="37.5" as="geometry" />
        </mxCell>
        <mxCell id="L6vsH4I87ayAv4RI-xaD-2" value="" style="endArrow=classic;html=1;rounded=0;dashed=1;exitX=0;exitY=0.5;exitDx=0;exitDy=0;entryX=1;entryY=0.5;entryDx=0;entryDy=0;" parent="1" source="pVMCiTDg7z46em1MxIxY-2" target="L6vsH4I87ayAv4RI-xaD-8" edge="1">
          <mxGeometry width="50" height="50" relative="1" as="geometry">
            <mxPoint x="479" y="146" as="sourcePoint" />
            <mxPoint x="540" y="100" as="targetPoint" />
          </mxGeometry>
        </mxCell>
        <mxCell id="miJZAYwyKmaXPgzx9ikr-5" value="zoom in" style="edgeLabel;html=1;align=center;verticalAlign=middle;resizable=0;points=[];" parent="L6vsH4I87ayAv4RI-xaD-2" vertex="1" connectable="0">
          <mxGeometry x="0.174" relative="1" as="geometry">
            <mxPoint x="6" y="-8" as="offset" />
          </mxGeometry>
        </mxCell>
        <mxCell id="L6vsH4I87ayAv4RI-xaD-8" value="" style="rounded=1;whiteSpace=wrap;html=1;fillColor=#f5f5f5;fontColor=#333333;strokeColor=#666666;" parent="1" vertex="1">
          <mxGeometry x="90" y="28" width="168" height="168" as="geometry" />
        </mxCell>
        <mxCell id="L6vsH4I87ayAv4RI-xaD-12" value="" style="ellipse;whiteSpace=wrap;html=1;aspect=fixed;fillColor=#f8cecc;strokeColor=#b85450;" parent="1" vertex="1">
          <mxGeometry x="156" y="36" width="40" height="40" as="geometry" />
        </mxCell>
        <mxCell id="L6vsH4I87ayAv4RI-xaD-13" value="" style="ellipse;whiteSpace=wrap;html=1;aspect=fixed;fillColor=#1ba1e2;fontColor=#ffffff;strokeColor=#006EAF;" parent="1" vertex="1">
          <mxGeometry x="213" y="96" width="40" height="40" as="geometry" />
        </mxCell>
        <mxCell id="L6vsH4I87ayAv4RI-xaD-14" value="" style="ellipse;whiteSpace=wrap;html=1;aspect=fixed;fillColor=#60a917;fontColor=#ffffff;strokeColor=#2D7600;" parent="1" vertex="1">
          <mxGeometry x="96" y="142" width="40" height="40" as="geometry" />
        </mxCell>
        <mxCell id="L6vsH4I87ayAv4RI-xaD-15" value="" style="endArrow=none;html=1;rounded=0;entryX=0.5;entryY=1;entryDx=0;entryDy=0;exitX=1;exitY=0;exitDx=0;exitDy=0;" parent="1" source="L6vsH4I87ayAv4RI-xaD-14" target="L6vsH4I87ayAv4RI-xaD-12" edge="1">
          <mxGeometry width="50" height="50" relative="1" as="geometry">
            <mxPoint x="102" y="66" as="sourcePoint" />
            <mxPoint x="211" y="46" as="targetPoint" />
          </mxGeometry>
        </mxCell>
        <mxCell id="miJZAYwyKmaXPgzx9ikr-3" value="Operator" style="edgeLabel;html=1;align=center;verticalAlign=middle;resizable=0;points=[];labelBackgroundColor=#f5f5f5;" parent="L6vsH4I87ayAv4RI-xaD-15" vertex="1" connectable="0">
          <mxGeometry x="0.3435" y="-2" relative="1" as="geometry">
            <mxPoint x="-29" as="offset" />
          </mxGeometry>
        </mxCell>
        <mxCell id="L6vsH4I87ayAv4RI-xaD-16" value="" style="endArrow=none;html=1;rounded=0;entryX=0;entryY=1;entryDx=0;entryDy=0;exitX=1;exitY=0.5;exitDx=0;exitDy=0;" parent="1" source="L6vsH4I87ayAv4RI-xaD-14" target="L6vsH4I87ayAv4RI-xaD-13" edge="1">
          <mxGeometry width="50" height="50" relative="1" as="geometry">
            <mxPoint x="118" y="81" as="sourcePoint" />
            <mxPoint x="128" y="56" as="targetPoint" />
          </mxGeometry>
        </mxCell>
        <mxCell id="L6vsH4I87ayAv4RI-xaD-24" value="Time&lt;br&gt;Modify&lt;br&gt;Preposition" style="edgeLabel;html=1;align=center;verticalAlign=middle;resizable=0;points=[];labelBackgroundColor=#f5f5f5;" parent="L6vsH4I87ayAv4RI-xaD-16" vertex="1" connectable="0">
          <mxGeometry x="0.3842" y="-2" relative="1" as="geometry">
            <mxPoint x="2" y="29" as="offset" />
          </mxGeometry>
        </mxCell>
        <mxCell id="L6vsH4I87ayAv4RI-xaD-17" value="" style="endArrow=none;html=1;rounded=0;entryX=0;entryY=0;entryDx=0;entryDy=0;exitX=1;exitY=1;exitDx=0;exitDy=0;" parent="1" source="L6vsH4I87ayAv4RI-xaD-12" target="L6vsH4I87ayAv4RI-xaD-13" edge="1">
          <mxGeometry width="50" height="50" relative="1" as="geometry">
            <mxPoint x="128" y="91" as="sourcePoint" />
            <mxPoint x="138" y="66" as="targetPoint" />
          </mxGeometry>
        </mxCell>
        <mxCell id="miJZAYwyKmaXPgzx9ikr-4" value="ARGx" style="edgeLabel;html=1;align=center;verticalAlign=middle;resizable=0;points=[];labelBackgroundColor=#f5f5f5;" parent="L6vsH4I87ayAv4RI-xaD-17" vertex="1" connectable="0">
          <mxGeometry x="0.05" y="3" relative="1" as="geometry">
            <mxPoint x="13" y="-4" as="offset" />
          </mxGeometry>
        </mxCell>
        <mxCell id="L6vsH4I87ayAv4RI-xaD-26" value="" style="rounded=0;whiteSpace=wrap;html=1;fillColor=#fcfcfc;" parent="1" vertex="1">
          <mxGeometry x="30" y="309" width="198" height="71" as="geometry" />
        </mxCell>
        <mxCell id="L6vsH4I87ayAv4RI-xaD-27" value="" style="ellipse;whiteSpace=wrap;html=1;aspect=fixed;fillColor=#f8cecc;strokeColor=#b85450;" parent="1" vertex="1">
          <mxGeometry x="149" y="333" width="18" height="18" as="geometry" />
        </mxCell>
        <mxCell id="L6vsH4I87ayAv4RI-xaD-30" value="Trigger rep" style="text;html=1;strokeColor=none;fillColor=none;align=center;verticalAlign=middle;whiteSpace=wrap;rounded=0;" parent="1" vertex="1">
          <mxGeometry x="49" y="327" width="71" height="30" as="geometry" />
        </mxCell>
        <mxCell id="L6vsH4I87ayAv4RI-xaD-33" value="" style="endArrow=none;html=1;rounded=0;exitX=1;exitY=1;exitDx=0;exitDy=0;entryX=0;entryY=0;entryDx=0;entryDy=0;" parent="1" source="pVMCiTDg7z46em1MxIxY-86" target="pVMCiTDg7z46em1MxIxY-89" edge="1">
          <mxGeometry width="50" height="50" relative="1" as="geometry">
            <mxPoint x="360" y="340" as="sourcePoint" />
            <mxPoint x="410" y="290" as="targetPoint" />
          </mxGeometry>
        </mxCell>
        <mxCell id="L6vsH4I87ayAv4RI-xaD-34" value="" style="rounded=1;whiteSpace=wrap;html=1;fillColor=#d5e8d4;strokeColor=#82b366;" parent="1" vertex="1">
          <mxGeometry x="398" y="354" width="60" height="60" as="geometry" />
        </mxCell>
        <mxCell id="L6vsH4I87ayAv4RI-xaD-35" value="" style="ellipse;whiteSpace=wrap;html=1;aspect=fixed;fillColor=#f8cecc;strokeColor=#b85450;" parent="1" vertex="1">
          <mxGeometry x="426" y="355" width="18" height="18" as="geometry" />
        </mxCell>
        <mxCell id="L6vsH4I87ayAv4RI-xaD-36" value="" style="ellipse;whiteSpace=wrap;html=1;aspect=fixed;fillColor=#60a917;fontColor=#ffffff;strokeColor=#2D7600;" parent="1" vertex="1">
          <mxGeometry x="398" y="376" width="18" height="18" as="geometry" />
        </mxCell>
        <mxCell id="L6vsH4I87ayAv4RI-xaD-37" value="" style="endArrow=none;html=1;rounded=0;entryX=0;entryY=1;entryDx=0;entryDy=0;exitX=1;exitY=0;exitDx=0;exitDy=0;" parent="1" source="L6vsH4I87ayAv4RI-xaD-36" target="L6vsH4I87ayAv4RI-xaD-35" edge="1">
          <mxGeometry width="50" height="50" relative="1" as="geometry">
            <mxPoint x="419" y="380" as="sourcePoint" />
            <mxPoint x="528" y="360" as="targetPoint" />
          </mxGeometry>
        </mxCell>
        <mxCell id="L6vsH4I87ayAv4RI-xaD-38" value="" style="ellipse;whiteSpace=wrap;html=1;aspect=fixed;fillColor=#1ba1e2;fontColor=#ffffff;strokeColor=#006EAF;" parent="1" vertex="1">
          <mxGeometry x="440" y="373" width="18" height="18" as="geometry" />
        </mxCell>
        <mxCell id="L6vsH4I87ayAv4RI-xaD-39" value="" style="ellipse;whiteSpace=wrap;html=1;aspect=fixed;fillColor=#fa6800;fontColor=#000000;strokeColor=#C73500;" parent="1" vertex="1">
          <mxGeometry x="422" y="394" width="18" height="18" as="geometry" />
        </mxCell>
        <mxCell id="L6vsH4I87ayAv4RI-xaD-41" value="" style="endArrow=none;html=1;rounded=0;exitX=1;exitY=1;exitDx=0;exitDy=0;entryX=0;entryY=0;entryDx=0;entryDy=0;" parent="1" source="L6vsH4I87ayAv4RI-xaD-35" target="L6vsH4I87ayAv4RI-xaD-38" edge="1">
          <mxGeometry width="50" height="50" relative="1" as="geometry">
            <mxPoint x="436" y="408" as="sourcePoint" />
            <mxPoint x="486" y="358" as="targetPoint" />
          </mxGeometry>
        </mxCell>
        <mxCell id="L6vsH4I87ayAv4RI-xaD-42" value="&lt;span style=&quot;background-color: rgb(248, 206, 204);&quot;&gt;[&lt;font style=&quot;border-color: var(--border-color);&quot; color=&quot;#cc0000&quot;&gt;&lt;b style=&quot;border-color: var(--border-color);&quot;&gt;y&lt;sub style=&quot;border-color: var(--border-color);&quot;&gt;2&lt;/sub&gt;&lt;/b&gt;&lt;/font&gt;&lt;span style=&quot;color: rgb(51, 51, 51);&quot;&gt;]&lt;/span&gt;&lt;/span&gt;" style="text;html=1;strokeColor=none;fillColor=none;align=center;verticalAlign=middle;whiteSpace=wrap;rounded=0;" parent="1" vertex="1">
          <mxGeometry x="143.5" y="309" width="31" height="30" as="geometry" />
        </mxCell>
        <mxCell id="L6vsH4I87ayAv4RI-xaD-43" value="Trigger" style="text;html=1;strokeColor=none;fillColor=none;align=center;verticalAlign=middle;whiteSpace=wrap;rounded=0;" parent="1" vertex="1">
          <mxGeometry x="39" y="308" width="71" height="30" as="geometry" />
        </mxCell>
        <mxCell id="L6vsH4I87ayAv4RI-xaD-44" value="" style="endArrow=none;html=1;rounded=0;entryX=0.5;entryY=1;entryDx=0;entryDy=0;exitX=0.5;exitY=0;exitDx=0;exitDy=0;" parent="1" source="pVMCiTDg7z46em1MxIxY-90" target="pVMCiTDg7z46em1MxIxY-86" edge="1">
          <mxGeometry width="50" height="50" relative="1" as="geometry">
            <mxPoint x="310" y="360" as="sourcePoint" />
            <mxPoint x="360" y="310" as="targetPoint" />
          </mxGeometry>
        </mxCell>
        <mxCell id="L6vsH4I87ayAv4RI-xaD-45" value="" style="endArrow=none;html=1;rounded=0;entryX=0.5;entryY=1;entryDx=0;entryDy=0;exitX=0.5;exitY=0;exitDx=0;exitDy=0;" parent="1" source="L6vsH4I87ayAv4RI-xaD-39" target="L6vsH4I87ayAv4RI-xaD-35" edge="1">
          <mxGeometry width="50" height="50" relative="1" as="geometry">
            <mxPoint x="365" y="336" as="sourcePoint" />
            <mxPoint x="369" y="315" as="targetPoint" />
          </mxGeometry>
        </mxCell>
        <mxCell id="L6vsH4I87ayAv4RI-xaD-46" value="" style="ellipse;whiteSpace=wrap;html=1;aspect=fixed;fillColor=#60a917;fontColor=#ffffff;strokeColor=#2D7600;" parent="1" vertex="1">
          <mxGeometry x="149" y="354" width="18" height="18" as="geometry" />
        </mxCell>
        <mxCell id="L6vsH4I87ayAv4RI-xaD-47" value="" style="ellipse;whiteSpace=wrap;html=1;aspect=fixed;fillColor=#fa6800;fontColor=#000000;strokeColor=#C73500;" parent="1" vertex="1">
          <mxGeometry x="172" y="354" width="18" height="18" as="geometry" />
        </mxCell>
        <mxCell id="L6vsH4I87ayAv4RI-xaD-48" value="" style="ellipse;whiteSpace=wrap;html=1;aspect=fixed;fillColor=#1ba1e2;fontColor=#ffffff;strokeColor=#006EAF;" parent="1" vertex="1">
          <mxGeometry x="195" y="354" width="18" height="18" as="geometry" />
        </mxCell>
        <mxCell id="L6vsH4I87ayAv4RI-xaD-49" value="Span rep" style="text;html=1;strokeColor=none;fillColor=none;align=center;verticalAlign=middle;whiteSpace=wrap;rounded=0;" parent="1" vertex="1">
          <mxGeometry x="39.5" y="346" width="81" height="30" as="geometry" />
        </mxCell>
        <mxCell id="L6vsH4I87ayAv4RI-xaD-51" value="" style="endArrow=classic;html=1;rounded=0;exitX=1;exitY=0.5;exitDx=0;exitDy=0;entryX=0;entryY=0.5;entryDx=0;entryDy=0;entryPerimeter=0;" parent="1" source="pVMCiTDg7z46em1MxIxY-11" edge="1">
          <mxGeometry width="50" height="50" relative="1" as="geometry">
            <mxPoint x="320" y="280" as="sourcePoint" />
            <mxPoint x="495" y="250" as="targetPoint" />
          </mxGeometry>
        </mxCell>
        <mxCell id="L6vsH4I87ayAv4RI-xaD-53" value="AMR-Tweaked Enhanced" style="edgeLabel;html=1;align=center;verticalAlign=middle;resizable=0;points=[];" parent="L6vsH4I87ayAv4RI-xaD-51" vertex="1" connectable="0">
          <mxGeometry x="0.2497" y="-2" relative="1" as="geometry">
            <mxPoint x="-25" y="-2" as="offset" />
          </mxGeometry>
        </mxCell>
        <mxCell id="L6vsH4I87ayAv4RI-xaD-54" value="local graph" style="text;html=1;align=center;verticalAlign=middle;resizable=0;points=[];autosize=1;strokeColor=none;fillColor=none;" parent="1" vertex="1">
          <mxGeometry x="346" y="55" width="80" height="30" as="geometry" />
        </mxCell>
        <mxCell id="L6vsH4I87ayAv4RI-xaD-55" value="global graph" style="text;html=1;align=center;verticalAlign=middle;resizable=0;points=[];autosize=1;strokeColor=none;fillColor=none;" parent="1" vertex="1">
          <mxGeometry x="345" y="414" width="90" height="30" as="geometry" />
        </mxCell>
        <mxCell id="L6vsH4I87ayAv4RI-xaD-56" value="" style="shape=sumEllipse;perimeter=ellipsePerimeter;whiteSpace=wrap;html=1;backgroundOutline=1;fillColor=#fff2cc;strokeColor=#000000;" parent="1" vertex="1">
          <mxGeometry x="504" y="234.5" width="31" height="31" as="geometry" />
        </mxCell>
        <mxCell id="L6vsH4I87ayAv4RI-xaD-58" value="" style="endArrow=classic;html=1;rounded=0;dashed=1;" parent="1" edge="1">
          <mxGeometry width="50" height="50" relative="1" as="geometry">
            <mxPoint x="530" y="220" as="sourcePoint" />
            <mxPoint x="560" y="150" as="targetPoint" />
          </mxGeometry>
        </mxCell>
        <mxCell id="miJZAYwyKmaXPgzx9ikr-6" value="zoom in" style="edgeLabel;html=1;align=center;verticalAlign=middle;resizable=0;points=[];" parent="L6vsH4I87ayAv4RI-xaD-58" vertex="1" connectable="0">
          <mxGeometry x="0.059" relative="1" as="geometry">
            <mxPoint as="offset" />
          </mxGeometry>
        </mxCell>
        <mxCell id="L6vsH4I87ayAv4RI-xaD-59" value="" style="rounded=1;whiteSpace=wrap;html=1;fillColor=#fff2cc;strokeColor=#d6b656;" parent="1" vertex="1">
          <mxGeometry x="565" y="40" width="185" height="156" as="geometry" />
        </mxCell>
        <mxCell id="L6vsH4I87ayAv4RI-xaD-80" value="" style="endArrow=classic;html=1;rounded=0;strokeColor=#ff0000;" parent="1" edge="1">
          <mxGeometry width="50" height="50" relative="1" as="geometry">
            <mxPoint x="565" y="120.81" as="sourcePoint" />
            <mxPoint x="615" y="121.1" as="targetPoint" />
          </mxGeometry>
        </mxCell>
        <mxCell id="L6vsH4I87ayAv4RI-xaD-81" value="&lt;font color=&quot;#ff0000&quot;&gt;V&lt;sub&gt;local&lt;/sub&gt;&lt;/font&gt;" style="edgeLabel;html=1;align=center;verticalAlign=middle;resizable=0;points=[];labelBackgroundColor=#fff2cc;" parent="L6vsH4I87ayAv4RI-xaD-80" vertex="1" connectable="0">
          <mxGeometry x="-0.3786" y="1" relative="1" as="geometry">
            <mxPoint x="4" y="-8" as="offset" />
          </mxGeometry>
        </mxCell>
        <mxCell id="L6vsH4I87ayAv4RI-xaD-82" value="" style="endArrow=classic;html=1;rounded=0;strokeColor=#0000ff;" parent="1" edge="1">
          <mxGeometry width="50" height="50" relative="1" as="geometry">
            <mxPoint x="565" y="168.81" as="sourcePoint" />
            <mxPoint x="615" y="168.1" as="targetPoint" />
          </mxGeometry>
        </mxCell>
        <mxCell id="L6vsH4I87ayAv4RI-xaD-83" value="&lt;font color=&quot;#0000ff&quot;&gt;Q&lt;sub&gt;global&lt;/sub&gt;&lt;/font&gt;" style="edgeLabel;html=1;align=center;verticalAlign=middle;resizable=0;points=[];labelBackgroundColor=#fff2cc;" parent="L6vsH4I87ayAv4RI-xaD-82" vertex="1" connectable="0">
          <mxGeometry x="-0.3214" y="1" relative="1" as="geometry">
            <mxPoint x="4" y="-8" as="offset" />
          </mxGeometry>
        </mxCell>
        <mxCell id="L6vsH4I87ayAv4RI-xaD-84" value="" style="endArrow=classic;html=1;rounded=0;entryX=0.004;entryY=0.221;entryDx=0;entryDy=0;edgeStyle=orthogonalEdgeStyle;entryPerimeter=0;" parent="1" target="L6vsH4I87ayAv4RI-xaD-87" edge="1">
          <mxGeometry width="50" height="50" relative="1" as="geometry">
            <mxPoint x="565" y="76.1" as="sourcePoint" />
            <mxPoint x="645" y="76.39000000000001" as="targetPoint" />
          </mxGeometry>
        </mxCell>
        <mxCell id="L6vsH4I87ayAv4RI-xaD-93" value="local rep" style="edgeLabel;html=1;align=center;verticalAlign=middle;resizable=0;points=[];labelBackgroundColor=#FFF4C3;" parent="L6vsH4I87ayAv4RI-xaD-84" vertex="1" connectable="0">
          <mxGeometry x="-0.4284" relative="1" as="geometry">
            <mxPoint x="-19" y="-9" as="offset" />
          </mxGeometry>
        </mxCell>
        <mxCell id="L6vsH4I87ayAv4RI-xaD-86" value="" style="shape=sumEllipse;perimeter=ellipsePerimeter;whiteSpace=wrap;html=1;backgroundOutline=1;" parent="1" vertex="1">
          <mxGeometry x="624" y="130.85" width="28.5" height="28.5" as="geometry" />
        </mxCell>
        <mxCell id="L6vsH4I87ayAv4RI-xaD-87" value="" style="shape=orEllipse;perimeter=ellipsePerimeter;whiteSpace=wrap;html=1;backgroundOutline=1;" parent="1" vertex="1">
          <mxGeometry x="687" y="94.85" width="41.15" height="41.15" as="geometry" />
        </mxCell>
        <mxCell id="L6vsH4I87ayAv4RI-xaD-88" value="" style="endArrow=classic;html=1;rounded=0;strokeColor=#00ff00;" parent="1" edge="1">
          <mxGeometry width="50" height="50" relative="1" as="geometry">
            <mxPoint x="565" y="144.1" as="sourcePoint" />
            <mxPoint x="615" y="144.39" as="targetPoint" />
          </mxGeometry>
        </mxCell>
        <mxCell id="L6vsH4I87ayAv4RI-xaD-89" value="&lt;font color=&quot;#00ff00&quot;&gt;K&lt;sub style=&quot;&quot;&gt;local&lt;/sub&gt;&lt;/font&gt;" style="edgeLabel;html=1;align=center;verticalAlign=middle;resizable=0;points=[];labelBackgroundColor=#fff2cc;" parent="L6vsH4I87ayAv4RI-xaD-88" vertex="1" connectable="0">
          <mxGeometry x="-0.3786" y="1" relative="1" as="geometry">
            <mxPoint x="4" y="-8" as="offset" />
          </mxGeometry>
        </mxCell>
        <mxCell id="L6vsH4I87ayAv4RI-xaD-90" value="Attention" style="text;html=1;align=center;verticalAlign=middle;resizable=0;points=[];autosize=1;strokeColor=none;fillColor=none;" parent="1" vertex="1">
          <mxGeometry x="606.25" y="110.1" width="70" height="30" as="geometry" />
        </mxCell>
        <mxCell id="L6vsH4I87ayAv4RI-xaD-91" style="edgeStyle=orthogonalEdgeStyle;rounded=0;orthogonalLoop=1;jettySize=auto;html=1;entryX=-0.02;entryY=0.718;entryDx=0;entryDy=0;entryPerimeter=0;" parent="1" source="L6vsH4I87ayAv4RI-xaD-86" target="L6vsH4I87ayAv4RI-xaD-87" edge="1">
          <mxGeometry relative="1" as="geometry" />
        </mxCell>
        <mxCell id="L6vsH4I87ayAv4RI-xaD-92" value="" style="shape=flexArrow;endArrow=classic;html=1;rounded=0;endWidth=6.857142857142857;endSize=3.6685714285714286;" parent="1" edge="1">
          <mxGeometry width="50" height="50" relative="1" as="geometry">
            <mxPoint x="730" y="115.71" as="sourcePoint" />
            <mxPoint x="750" y="115.71" as="targetPoint" />
          </mxGeometry>
        </mxCell>
        <mxCell id="miJZAYwyKmaXPgzx9ikr-1" value="" style="endArrow=none;html=1;rounded=0;entryX=0;entryY=1;entryDx=0;entryDy=0;exitX=1;exitY=0.5;exitDx=0;exitDy=0;dashed=1;" parent="1" edge="1">
          <mxGeometry width="50" height="50" relative="1" as="geometry">
            <mxPoint x="420.5" y="200" as="sourcePoint" />
            <mxPoint x="441.5" y="190" as="targetPoint" />
          </mxGeometry>
        </mxCell>
        <mxCell id="miJZAYwyKmaXPgzx9ikr-2" value="1.具体的实例来解释&lt;br&gt;2.或者 标注词的颜色" style="text;html=1;align=center;verticalAlign=middle;resizable=0;points=[];autosize=1;strokeColor=none;fillColor=none;" parent="1" vertex="1">
          <mxGeometry x="55" y="443" width="130" height="40" as="geometry" />
        </mxCell>
        <mxCell id="oEz1iu90TZtMotsWFyNv-1" value="fusion" style="text;html=1;align=center;verticalAlign=middle;resizable=0;points=[];autosize=1;strokeColor=none;fillColor=none;" vertex="1" parent="1">
          <mxGeometry x="489.5" y="211" width="60" height="30" as="geometry" />
        </mxCell>
        <mxCell id="oEz1iu90TZtMotsWFyNv-2" value="Add" style="text;html=1;align=center;verticalAlign=middle;resizable=0;points=[];autosize=1;strokeColor=none;fillColor=none;" vertex="1" parent="1">
          <mxGeometry x="686" y="69" width="40" height="30" as="geometry" />
        </mxCell>
      </root>
    </mxGraphModel>
  </diagram>
</mxfile>
